<svg xmlns="http://www.w3.org/2000/svg" viewBox="0 0 32 32">
    <path d="M27.242,18.323 C25.712,18.323 24.363,17.584 23.494,16.458 C22.625,17.584 21.277,18.323 19.748,18.323 C18.218,18.323 16.869,17.584 16.000,16.457 C15.131,17.584 13.783,18.323 12.253,18.323 C10.724,18.323 9.375,17.584 8.506,16.458 C7.637,17.584 6.288,18.323 4.759,18.323 C2.140,18.323 0.010,16.193 0.010,13.575 C0.010,13.494 0.020,13.414 0.040,13.335 C0.040,13.335 2.158,4.754 2.158,4.754 C2.269,4.307 2.670,3.994 3.130,3.994 C3.130,3.994 9.212,3.994 9.212,3.994 L16.000,3.994 L22.788,3.994 C22.788,3.994 28.870,3.994 28.870,3.994 C29.331,3.994 29.732,4.307 29.842,4.754 C29.842,4.754 31.961,13.335 31.961,13.335 C31.980,13.414 31.990,13.494 31.990,13.575 C31.990,16.193 29.860,18.323 27.242,18.323 zM3.914,5.995 C3.914,5.995 2.014,13.687 2.014,13.687 C2.074,15.150 3.282,16.322 4.759,16.322 C6.273,16.322 7.505,15.089 7.505,13.575 C7.505,13.547 7.506,13.520 7.508,13.493 C7.508,13.493 8.125,5.995 8.125,5.995 L3.914,5.995 zM15.000,5.995 L10.134,5.995 C10.134,5.995 9.507,13.613 9.507,13.613 C9.527,15.110 10.751,16.322 12.253,16.322 C13.767,16.322 15.000,15.089 15.000,13.575 C15.000,13.575 15.000,5.995 15.000,5.995 zM21.866,5.995 L17.001,5.995 C17.001,5.995 17.001,13.575 17.001,13.575 C17.001,15.089 18.233,16.322 19.748,16.322 C21.249,16.322 22.473,15.110 22.493,13.613 C22.493,13.613 21.866,5.995 21.866,5.995 zM28.086,5.995 L23.875,5.995 C23.875,5.995 24.492,13.493 24.492,13.493 C24.495,13.520 24.495,13.547 24.495,13.575 C24.495,15.089 25.728,16.322 27.242,16.322 C28.719,16.322 29.926,15.150 29.986,13.687 C29.986,13.687 28.086,5.995 28.086,5.995 zM4.033,25.014 L28.017,25.014 L28.017,19.436 L30.019,19.436 C30.019,19.436 30.019,29.506 30.019,29.506 C30.019,30.059 29.071,31.006 28.518,31.006 C28.518,31.006 3.470,31.006 3.470,31.006 C2.917,31.006 1.969,30.059 1.969,29.506 C1.969,29.506 1.969,19.436 1.969,19.436 L4.033,19.436 L4.033,25.014 zM28.017,29.005 L28.017,27.015 L4.033,27.015 L4.033,29.005 L28.017,29.005 z"
          fill="#999999"></path>
</svg>
