<svg xmlns="http://www.w3.org/2000/svg" width="24" height="24" viewBox="0 0 24 24">
    <path fill="#1e1e1e" fill-rule="evenodd"
          d="M21.336 20.593c-.03.035-.127.14-.449.145L2.948 21c-.166-.007-.255-.027-.31-.086-.187-.198-.138-.822-.11-1.196.015-.184.027-.352.025-.486-.003-.173.616-1.06 3.695-2.226.384-.146.727-.27 1.031-.378 1.791-.642 2.61-.935 2.578-2.923-.01-.71-.305-1.034-.564-1.32-.219-.241-.445-.49-.635-1.1a.49.49 0 0 0-.097-.175c-.282-.33-.525-.7-.725-1.1a.506.506 0 0 0-.143-.175c-.135-.103-.237-.453-.299-1.056a6.295 6.295 0 0 1-.18-1.382 6.216 6.216 0 0 1 .241-1.803.537.537 0 0 0 .02-.12c.012-.354.184-2.166 2.297-2.961A3.854 3.854 0 0 1 11.625 2L11.681 2c.62 0 1.232.155 1.882.489 2.065.703 2.291 2.509 2.315 2.864.003.04.011.08.023.118.187.584.287 1.188.296 1.794a6.79 6.79 0 0 1-.148 1.459c-.046.72-.18.93-.256.992a.5.5 0 0 0-.14.179 5.336 5.336 0 0 1-.69 1.122.506.506 0 0 0-.092.179c-.172.614-.39.869-.6 1.116-.252.294-.537.627-.526 1.336.03 1.988.856 2.257 2.666 2.846.307.1.653.213 1.042.348 3.14 1.086 3.955 1.916 3.992 2.114.002.11.013.244.024.39.034.402.083 1.009-.133 1.247m1.13-1.328a5.787 5.787 0 0 1-.02-.324c-.015-.954-1.585-1.978-4.666-3.044a52.349 52.349 0 0 0-1.059-.353c-1.809-.59-1.957-.638-1.976-1.911-.005-.332.073-.424.285-.671.232-.271.546-.64.775-1.398.276-.355.515-.744.714-1.16.313-.312.476-.813.518-1.544a7.298 7.298 0 0 0 .16-1.61 7.186 7.186 0 0 0-.325-2.027 4.216 4.216 0 0 0-2.916-3.651C13.207 1.18 12.408.982 11.61 1a4.688 4.688 0 0 0-2.258.608c-2.012.75-2.803 2.483-2.874 3.767a7.184 7.184 0 0 0-.265 2.035c.008.526.08 1.066.197 1.533.075.794.255 1.296.577 1.602.211.408.462.79.748 1.135.252.753.577 1.11.817 1.376.22.24.301.33.305.663.02 1.272-.126 1.325-1.916 1.967-.309.11-.657.236-1.048.384-1.99.755-4.359 1.918-4.34 3.176.001.109-.01.244-.022.394-.047.607-.11 1.438.377 1.958.251.266.595.4 1.025.4h.03l17.94-.261c.5-.008.895-.166 1.173-.473.508-.56.437-1.426.39-2"></path>
</svg>
